<svg xmlns="http://www.w3.org/2000/svg" viewBox="0 0 1600 400">
  <defs>
    <linearGradient id="supphbg" x1="0%" y1="0%" x2="100%" y2="100%">
      <stop offset="0%" style="stop-color:#5a9a7a"/>
      <stop offset="100%" style="stop-color:#3a7050"/>
    </linearGradient>
  </defs>
  <rect fill="url(#supphbg)" width="1600" height="400"/>
  <!-- Family silhouettes -->
  <circle cx="700" cy="200" r="40" fill="#ffffff" opacity="0.1"/>
  <circle cx="900" cy="200" r="40" fill="#ffffff" opacity="0.1"/>
  <circle cx="800" cy="250" r="30" fill="#f2dede" opacity="0.15"/>
  <!-- Heart -->
  <g transform="translate(780, 120)" opacity="0.12">
    <path d="M20,8 C20,4 16,0 12,0 C8,0 4,4 4,8 C4,4 0,0 -4,0 C-8,0 -12,4 -12,8 C-12,20 20,32 20,32 C20,32 52,20 52,8 C52,4 48,0 44,0 C40,0 36,4 36,8 C36,4 32,0 28,0 C24,0 20,4 20,8 Z" fill="#ffffff"/>
  </g>
</svg>

