<svg xmlns="http://www.w3.org/2000/svg" viewBox="0 0 400 300">
  <defs>
    <linearGradient id="suppbg" x1="0%" y1="0%" x2="100%" y2="100%">
      <stop offset="0%" style="stop-color:#f5f5f5"/>
      <stop offset="100%" style="stop-color:#e8e8e8"/>
    </linearGradient>
  </defs>
  <rect fill="url(#suppbg)" width="400" height="300"/>
  <!-- Parent 1 -->
  <circle cx="100" cy="100" r="30" fill="#477560" opacity="0.6"/>
  <ellipse cx="100" cy="180" rx="40" ry="55" fill="#477560" opacity="0.5"/>
  <!-- Parent 2 -->
  <circle cx="300" cy="100" r="30" fill="#477560" opacity="0.6"/>
  <ellipse cx="300" cy="180" rx="40" ry="55" fill="#477560" opacity="0.5"/>
  <!-- Child in center -->
  <circle cx="200" cy="130" r="25" fill="#e8b5b5" opacity="0.8"/>
  <ellipse cx="200" cy="200" rx="30" ry="45" fill="#e8b5b5" opacity="0.7"/>
  <!-- Heart symbol -->
  <g transform="translate(175, 60)">
    <path d="M25,10 C25,5 20,0 15,0 C10,0 5,5 5,10 C5,5 0,0 -5,0 C-10,0 -15,5 -15,10 C-15,25 25,40 25,40 C25,40 65,25 65,10 C65,5 60,0 55,0 C50,0 45,5 45,10 C45,5 40,0 35,0 C30,0 25,5 25,10 Z" fill="#f2dede" opacity="0.6" transform="scale(0.5)"/>
  </g>
  <text x="200" y="285" text-anchor="middle" font-family="Lato, sans-serif" font-size="14" fill="#477560">Supporto Genitoriale</text>
</svg>

