<svg xmlns="http://www.w3.org/2000/svg" viewBox="0 0 400 300">
  <defs>
    <linearGradient id="tratbg" x1="0%" y1="0%" x2="100%" y2="100%">
      <stop offset="0%" style="stop-color:#f5f5f5"/>
      <stop offset="100%" style="stop-color:#e8e8e8"/>
    </linearGradient>
  </defs>
  <rect fill="url(#tratbg)" width="400" height="300"/>
  <!-- Child with puzzle -->
  <circle cx="200" cy="100" r="40" fill="#477560" opacity="0.6"/>
  <ellipse cx="200" cy="200" rx="50" ry="65" fill="#477560" opacity="0.5"/>
  <!-- Puzzle pieces -->
  <g transform="translate(80, 180)">
    <path d="M0,0 L40,0 L40,15 C40,25 50,25 50,15 L50,0 L90,0 L90,40 L75,40 C65,40 65,50 75,50 L90,50 L90,90 L50,90 L50,75 C50,65 40,65 40,75 L40,90 L0,90 L0,50 L15,50 C25,50 25,40 15,40 L0,40 Z" fill="#e8b5b5" opacity="0.8"/>
  </g>
  <g transform="translate(220, 150)">
    <path d="M0,0 L40,0 L40,15 C40,25 50,25 50,15 L50,0 L90,0 L90,40 L75,40 C65,40 65,50 75,50 L90,50 L90,90 L50,90 L50,75 C50,65 40,65 40,75 L40,90 L0,90 L0,50 L15,50 C25,50 25,40 15,40 L0,40 Z" fill="#f2dede" opacity="0.8"/>
  </g>
  <text x="200" y="285" text-anchor="middle" font-family="Lato, sans-serif" font-size="14" fill="#477560">Trattamento Neuropsicomotorio</text>
</svg>

